<svg data-v-0dd9719b="" version="1.0" xmlns="http://www.w3.org/2000/svg" xmlns:xlink="http://www.w3.org/1999/xlink" width="100%" height="100%" viewBox="0 0 340.000000 250.000000" preserveAspectRatio="xMidYMid meet" color-interpolation-filters="sRGB" style="margin: auto;"> <rect data-v-0dd9719b="" x="0" y="0" width="100%" height="100%" fill="#ffffff" fill-opacity="1" class="background"></rect> <rect data-v-0dd9719b="" x="0" y="0" width="100%" height="100%" fill="url(#watermark)" fill-opacity="1" class="watermarklayer"></rect> <g data-v-0dd9719b="" fill="#0a0619" class="icon-text-wrapper icon-svg-group iconsvg" transform="translate(43.41999816894531,97.5)"><g fill="#FFFFFF" class="iconsvg-imagesvg icon_container" transform="translate(0,0)" mask="url(#5ff44c37-0662-4cb2-802d-f86f68e89b3f)"><rect fill="#0a0619" fill-opacity="0" stroke-width="2" x="0" y="0" width="55" height="55" class="image-rect"></rect> <svg viewBox="0 0 60 60" x="0" y="0" width="55" height="55" class="image-svg-svg bn" style="overflow: visible;"><g hollow-target="iconBnFill" mask="url(#fc9031b9-30e5-4319-96d3-6b7ba52a7ed1)"><g><svg fill="#000000" xmlns="http://www.w3.org/2000/svg" xmlns:xlink="http://www.w3.org/1999/xlink" xmlns:sketch="http://www.bohemiancoding.com/sketch/ns" viewBox="0 0 60 60" version="1.1" x="0" y="0" style="overflow: visible;" width="60" height="60" filtersec="colorsf4175155971" filter="url(#uFUPGi24cRid7-fSSm643)"><g transform="scale(1, 1) skewX(0)"><title>96 - Rounded (Solid)</title><desc>Created with Sketch.</desc><g fill-rule="evenodd"><g fill="#000000"><path d="M49.001,0 L10.999,0 C4.934,0 0,4.934 0,10.999 L0,49.001 C0,55.066 4.934,60 10.999,60 L49.001,60 C55.065,60 60,55.066 60,49.001 L60,10.999 C60,4.934 55.065,0 49.001,0"></path></g></g></g><defs><filter id="uFUPGi24cRid7-fSSm643"><feColorMatrix type="matrix" values="0 0 0 0 0.99609375  0 0 0 0 0.99609375  0 0 0 0 0.99609375  0 0 0 1 0"></feColorMatrix></filter></defs></svg></g> <g filter="url(#colors1313875592)"><svg xmlns="http://www.w3.org/2000/svg" viewBox="0 0 280.07 200" width="40" height="40" x="10" y="10" class="image-svg-icon"><g><path d="M140.05 0a100 100 0 0 1 93.32 64 70 70 0 0 1-23.32 136h-140A70 70 0 0 1 46.73 64a100 100 0 0 1 93.32-64zm0 20a80.07 80.07 0 0 0-77.64 60.58A50 50 0 0 0 70.05 180h140a50 50 0 0 0 7.64-99.4A80 80 0 0 0 140.05 20z"></path></g></svg></g></g><mask id="fc9031b9-30e5-4319-96d3-6b7ba52a7ed1"><g fill="white"><svg xmlns="http://www.w3.org/2000/svg" xmlns:xlink="http://www.w3.org/1999/xlink" xmlns:sketch="http://www.bohemiancoding.com/sketch/ns" viewBox="0 0 60 60" version="1.1" x="0" y="0" style="overflow: visible;" width="60" height="60" filtersec="colorsf4175155971"><g transform="scale(1, 1) skewX(0)"><title>96 - Rounded (Solid)</title><desc>Created with Sketch.</desc><g fill-rule="evenodd"><g><path d="M49.001,0 L10.999,0 C4.934,0 0,4.934 0,10.999 L0,49.001 C0,55.066 4.934,60 10.999,60 L49.001,60 C55.065,60 60,55.066 60,49.001 L60,10.999 C60,4.934 55.065,0 49.001,0"></path></g></g></g><defs></defs></svg></g> <g fill="black"><svg xmlns="http://www.w3.org/2000/svg" viewBox="0 0 280.07 200" width="40" height="40" x="10" y="10" class="image-svg-icon"><g><path d="M140.05 0a100 100 0 0 1 93.32 64 70 70 0 0 1-23.32 136h-140A70 70 0 0 1 46.73 64a100 100 0 0 1 93.32-64zm0 20a80.07 80.07 0 0 0-77.64 60.58A50 50 0 0 0 70.05 180h140a50 50 0 0 0 7.64-99.4A80 80 0 0 0 140.05 20z"></path></g></svg></g></mask></svg> <defs><filter id="colors1313875592"><feColorMatrix type="matrix" values="0 0 0 0 0.99609375  0 0 0 0 0.99609375  0 0 0 0 0.99609375  0 0 0 1 0" class="icon-fecolormatrix"></feColorMatrix></filter> <filter id="colorsf4175155971"><feColorMatrix type="matrix" values="0 0 0 0 0.99609375  0 0 0 0 0.99609375  0 0 0 0 0.99609375  0 0 0 1 0" class="icon-fecolormatrix"></feColorMatrix></filter> <filter id="colorsb8165742178"><feColorMatrix type="matrix" values="0 0 0 0 0  0 0 0 0 0  0 0 0 0 0  0 0 0 1 0" class="icon-fecolormatrix"></feColorMatrix></filter></defs><rect v-gra="id" width="67" height="67" transform="translate(-6, -6)" style="pointer-events:none;" fill="url(#QqXiwmNjoFmdLyZkQ2ytv)"></rect></g> <g transform="translate(62,2.0831260681152344)"><g data-gra="path-name" fill-rule="" class="tp-name iconsvg-namesvg" transform="translate(0,0)"><g transform="scale(1)"><g><path d="M21.02-10.44L21.02-0.61 29.25-0.61 29.25-10.44 21.02-10.44ZM21.21-11.54L28.91-11.54 30.85-13.71 35.08-10.59Q34.62-9.94 33.55-9.79L33.55-9.79 33.55 1.83Q33.48 2.06 32.2 2.48 30.93 2.89 29.97 2.89L29.97 2.89 29.25 2.89 29.25 0.46 21.02 0.46 21.02 2.02Q21.02 2.21 20.49 2.53 19.96 2.86 19.06 3.12 18.17 3.39 17.33 3.39L17.33 3.39 16.64 3.39 16.64-13.41 21.21-11.54ZM18.43-17.94L26.39-17.94 28.6-20.95Q31.08-18.89 32.56-17.44L32.56-17.44Q32.37-16.8 31.46-16.8L31.46-16.8 18.78-16.8 18.43-17.94ZM6.51-27.61L6.51-9.14 9.98-9.14 9.98-27.61 6.51-27.61ZM22.43-33.4L22.43-33.4 28.37-31.46Q28.07-30.66 26.89-30.7L26.89-30.7Q28.49-27.38 31.67-24.53 34.85-21.67 38.35-19.96L38.35-19.96 38.28-19.46Q35.84-17.98 35.46-15.54L35.46-15.54Q32.6-17.94 30.2-21.71 27.8-25.48 26.36-29.63L26.36-29.63Q22.13-19.88 14.09-14.89L14.09-14.89 14.05-14.93 14.05-6.25Q14.02-5.94 12.85-5.41 11.69-4.88 10.66-4.88L10.66-4.88 9.98-4.88 9.98-8 6.51-8 6.51-4.15Q6.51-3.77 5.47-3.24 4.42-2.7 3.2-2.7L3.2-2.7 2.55-2.7 2.55-30.51 6.7-28.72 9.6-28.72 11.58-30.93 15.65-27.73Q15.12-27.12 14.05-26.93L14.05-26.93 14.05-15.73Q16.76-19.08 19.02-23.75 21.29-28.41 22.43-33.4ZM69.93-24.3L69.93-24.3 50.62-24.3Q46.16-18.47 40.33-14.93L40.33-14.93 39.99-15.27Q42.73-18.59 45.36-23.48 47.99-28.37 49.59-33.36L49.59-33.36 55.95-30.7Q55.57-29.9 54.31-30.01L54.31-30.01Q52.79-27.27 51.45-25.4L51.45-25.4 69.74-25.4 72.29-27.88 76.59-23.77Q76.13-23.31 75.03-23.27L75.03-23.27Q71.98-19.8 68.06-17.1L68.06-17.1 67.72-17.33Q68.97-20.45 69.93-24.3ZM49.05-17.75L49.05-17.75 55.03-15.12Q54.77-14.51 53.59-14.55L53.59-14.55Q48.45-5.22 40.68-0.76L40.68-0.76 40.33-1.18Q43.3-4.34 45.63-8.97 47.95-13.6 49.05-17.75ZM56.9-2.48L56.9-2.48 56.9-22.2 62.96-21.63Q62.84-20.79 61.58-20.64L61.58-20.64 61.58-2.13Q61.58 0.57 60.39 1.83 59.19 3.08 55.26 3.47L55.26 3.47Q55.03 1.03 54.12 0.11L54.12 0.11Q53.09-1.03 50.24-1.52L50.24-1.52 50.24-2.02Q55.03-1.75 55.99-1.75L55.99-1.75Q56.9-1.75 56.9-2.48ZM64.29-16.83L64.29-16.83 64.71-17.1Q72.1-13.56 74.61-8.61L74.61-8.61Q76.17-5.52 75.22-3.43L75.22-3.43Q74.5-1.79 72.86-2.17L72.86-2.17Q72.13-2.36 71.41-2.93L71.41-2.93Q70.76-6.17 68.75-9.94 66.73-13.71 64.29-16.83ZM80.86-32.41L80.86-32.41 81.16-32.64Q86.65-32.11 88.05-29.52L88.05-29.52Q88.93-27.92 87.9-26.66 86.87-25.4 85.2-26.01L85.2-26.01Q84.78-26.17 84.4-26.43L84.4-26.43Q83.64-29.48 80.86-32.41ZM78.69-23.46L78.69-23.46 79.07-23.73Q84.17-23.27 85.46-20.83L85.46-20.83Q86.23-19.35 85.2-18.17L85.2-18.17Q84.17-16.99 82.53-17.63L82.53-17.63Q82.19-17.79 81.85-18.01L81.85-18.01Q81.24-20.91 78.69-23.46ZM89.54-27.23L89.54-27.23 90.15-27.08Q86.8-13.75 86.19-10.63L86.19-10.63Q85.69-8.04 85.73-6.82L85.73-6.82Q85.77-6.02 86.57-3.88 87.37-1.75 87.29 0.23L87.29 0.23Q87.22 1.68 86.36 2.59 85.5 3.5 84.09 3.5L84.09 3.5Q82.34 3.5 81.92 1.49L81.92 1.49Q82.46-1.52 82.36-3.98 82.27-6.44 81.58-6.89L81.58-6.89Q80.82-7.43 79.6-7.54L79.6-7.54 79.6-8.26 81.31-8.26Q81.77-8.26 81.98-8.4 82.19-8.53 82.42-9.14L82.42-9.14Q82.99-10.21 83.88-12.47 84.78-14.74 89.54-27.23ZM88.32 3.39L88.32 3.39 88.02 2.93Q90.57 1.29 92.95-1.26 95.33-3.81 96.59-6.06L96.59-6.06 101.73-3.05Q101.35-2.44 100.28-2.63L100.28-2.63Q98.15-0.76 94.95 0.88 91.75 2.51 88.32 3.39ZM103.94-5.1L103.94-5.1 104.24-5.41Q111.29-4.57 113.69-1.29L113.69-1.29Q115.1 0.57 114.26 2.09L114.26 2.09Q113.53 3.47 111.82 3.12L111.82 3.12Q111.44 3.05 111.02 2.86L111.02 2.86Q109.99 0.91 107.99-1.28 105.99-3.47 103.94-5.1ZM103.48-14.82L97.61-14.82 97.61-7.81 103.48-7.81 103.48-14.82ZM107.75-7.81L109.42-7.81 111.67-11.16Q114.14-8.84 115.55-7.35L115.55-7.35Q115.36-6.7 114.49-6.7L114.49-6.7 88.51-6.7 88.25-7.81 93.2-7.81 93.2-21.48Q92.24-20.79 91.14-21.14 90.04-21.48 89.77-22.53 89.5-23.58 90.57-25.1L90.57-25.1Q92.7-26.05 92.97-29.36L92.97-29.36 93.5-29.36Q93.96-28.15 94.15-27.35L94.15-27.35 101.84-27.35Q101.23-27.61 100.93-27.84L100.93-27.84Q100.66-30.7 98.64-33.21L98.64-33.21 98.95-33.48Q103.94-32.98 105.08-30.58L105.08-30.58Q105.76-29.06 104.62-27.92L104.62-27.92Q104.28-27.54 103.82-27.35L103.82-27.35 110.03-27.35 112.24-29.59 116.16-25.82Q115.82-25.48 114.75-25.37L114.75-25.37Q112.28-23.16 110.68-22.05L110.68-22.05 110.3-22.28Q110.33-22.74 110.35-23.4 110.37-24.07 110.39-24.93 110.41-25.78 110.41-26.2L110.41-26.2 94.38-26.2Q94.76-24.03 94.19-22.66L94.19-22.66 97.69-21.06Q103.9-23.08 107.25-25.06L107.25-25.06 111.52-20.87Q110.75-20.26 109-20.95L109-20.95Q103.17-20.03 97.61-19.88L97.61-19.88 97.61-15.92 107.4-15.92 109.76-19.08Q112.39-16.95 113.95-15.46L113.95-15.46Q113.76-14.82 112.89-14.82L112.89-14.82 107.75-14.82 107.75-7.81ZM153.11-20.76L153.6-20.76 153.71-18.17Q154.82-17.71 154.82-16.68L154.82-16.68Q154.82-15.58 153.6-15.04 152.38-14.51 149.53-14.51L149.53-14.51 147.2-14.51Q145.18-14.51 144.61-15.12 144.04-15.73 144.04-17.52L144.04-17.52 144.04-23.31 148.65-22.89Q148.57-22.17 147.58-21.98L147.58-21.98 147.58-18.36Q147.58-18.05 147.72-17.98 147.85-17.9 148.31-17.9L148.31-17.9 151.35-17.9Q151.85-17.9 152.04-18.17L152.04-18.17Q152.46-18.74 153.11-20.76L153.11-20.76ZM146.21-9.9L146.21-9.9 140.65-9.9Q140.08-9.22 139.28-8.49L139.28-8.49Q140.77-6.47 142.9-5.03L142.9-5.03Q144.99-7.31 146.21-9.9ZM134.52-21.52L134.52-21.52 133.26-25.1Q132.96-24.91 132.31-24.79L132.31-24.79 132.31-13.86Q136.73-16.38 137.76-22.78L137.76-22.78 135.62-22.36Q135.17-21.56 134.52-21.52ZM146.21-11.04L148.76-13.29 152.65-9.75Q152.31-9.25 151.09-9.22L151.09-9.22Q149.11-5.83 146.17-3.31L146.17-3.31Q149.94-1.75 155.5-1.18L155.5-1.18 155.43-0.72Q152.88 0.27 152.53 3.47L152.53 3.47Q146.75 2.02 143.2-1.22L143.2-1.22Q137.22 2.4 128.27 3.47L128.27 3.47 128.08 2.97Q136.27 0.8 141.18-3.43L141.18-3.43Q139.81-5.22 138.56-7.85L138.56-7.85Q136-5.6 132.62-4.19L132.62-4.19 132.31-4.46 132.31-2.82Q132.31-2.51 131.49-2.13 130.67-1.75 129.8-1.75L129.8-1.75 129.23-1.75 129.23-4.61 122.45-4.61 122.45-1.33Q122.45-1.03 121.59-0.63 120.73-0.23 119.86-0.23L119.86-0.23 119.25-0.23 119.25-26.24 123.89-25.75Q123.7-24.83 122.45-24.68L122.45-24.68 122.45-5.71 124.12-5.71 124.12-32.07 128.88-31.57Q128.77-30.66 127.51-30.51L127.51-30.51 127.51-5.71 129.23-5.71 129.23-26.36 133-25.97 132.92-26.2Q136-26.2 138.25-26.24L138.25-26.24Q139.17-30.16 139.58-33.1L139.58-33.1 145.6-31.95Q145.41-31.08 144.16-31.08L144.16-31.08Q142.56-28.79 140.31-26.24L140.31-26.24Q142.44-26.28 148.54-26.43L148.54-26.43Q147.09-28.34 145.56-29.63L145.56-29.63 145.91-29.94Q151.81-28.87 153.6-25.82L153.6-25.82Q154.63-24.03 153.75-22.74L153.75-22.74Q152.92-21.48 151.35-22.09L151.35-22.09Q151.05-22.2 150.74-22.39L150.74-22.39Q150.36-23.77 149.33-25.33L149.33-25.33Q146.4-24.6 138.56-22.93L138.56-22.93 143.05-21.67Q142.82-20.99 141.68-20.95L141.68-20.95Q139.09-14.63 132.35-13.22L132.35-13.22 132.31-13.33 132.31-4.76Q134.48-6.67 136.33-9.65 138.18-12.64 139.17-16.11L139.17-16.11 144.69-14.28Q144.42-13.44 143.09-13.48L143.09-13.48Q142.59-12.49 141.53-11.04L141.53-11.04 146.21-11.04ZM171.12-24.64L171.12-24.64 163.39-24.64Q162.86-23.96 162.36-23.42L162.36-23.42 163.85-22.81 165.79-22.81 167.2-24.18 170.13-22.05Q169.79-21.63 169.14-21.52L169.14-21.52 169.14-17.82Q169.14-17.56 167.92-17.21L167.92-17.21Q169.14-17.14 169.52-17.14L169.52-17.14Q169.94-17.14 170.09-17.37L170.09-17.37Q170.78-18.24 171.12-24.64ZM163.69-21.67L163.69-19.16 166.05-19.16 166.05-21.67 163.69-21.67ZM169.56-13.41L169.56-13.41Q169.56-14.93 169.01-15.63 168.45-16.34 167.12-16.68L167.12-16.68 167.12-16.99Q166.93-16.95 166.59-16.95L166.59-16.95 166.05-16.95 166.05-18.05 163.69-18.05 163.69-17.18Q163.69-17.06 163.31-16.83 162.93-16.61 162.28-16.42 161.64-16.22 161.07-16.22L161.07-16.22 160.68-16.22 160.68-21.71Q159.35-20.49 157.79-19.61L157.79-19.61 157.37-19.92Q158.51-21.4 159.47-23.69 160.42-25.97 160.88-28.15L160.88-28.15 161.6-28.03 161.6-28.87 157.64-28.87 157.37-29.97 161.6-29.97 161.6-33.02 166.28-32.6Q166.21-31.88 165.29-31.73L165.29-31.73 165.29-29.97 167.96-29.97 167.96-33.02 172.68-32.56Q172.61-31.76 171.62-31.61L171.62-31.61 171.62-29.97 172.8-29.97 174.43-32.18Q176.38-30.7 177.59-29.48L177.59-29.48Q177.44-28.87 176.64-28.87L176.64-28.87 171.62-28.87 171.62-28.07Q171.62-27.96 171.35-27.78 171.08-27.61 170.42-27.42 169.75-27.23 168.91-27.23L168.91-27.23 167.96-27.23 167.96-28.87 165.29-28.87 165.29-27.96Q165.29-27.8 164.8-27.57L164.8-27.57 166.17-27.38Q166.05-26.74 164.8-26.7L164.8-26.7Q164.42-26.09 164.19-25.78L164.19-25.78 170.78-25.78 172.76-27.69 176.38-24.72Q176-24.26 174.93-24.15L174.93-24.15Q174.7-19.5 174.21-17.33 173.71-15.16 172.64-14.28L172.64-14.28Q171.54-13.48 169.56-13.41ZM177.98-4.65L186.96-4.65 189.29-7.39Q191.88-5.52 193.48-4.15L193.48-4.15Q193.29-3.5 192.41-3.5L192.41-3.5 177.98-3.5 177.98-1.52Q177.98 0.88 176.76 2.08 175.54 3.28 171.84 3.54L171.84 3.54Q171.58 1.37 170.74 0.65L170.74 0.65Q169.75-0.3 166.85-0.72L166.85-0.72 166.85-1.26Q171.62-0.95 172.57-0.95L172.57-0.95Q173.44-0.95 173.44-1.6L173.44-1.6 173.44-3.5 157.87-3.5 157.56-4.65 173.44-4.65 173.44-7.39 160.3-7.39 159.96-8.46 173.44-8.46 173.44-10.93Q166.97-10.66 161.56-10.89L161.56-10.89 161.48-11.5Q167.04-12 173.29-13.22 179.54-14.43 183.27-15.69L183.27-15.69 187.08-11.77Q186.39-11.2 184.68-11.92L184.68-11.92Q181.86-11.54 177.98-11.24L177.98-11.24 177.98-8.46 184.56-8.46 186.81-11.12Q189.4-9.33 190.96-8L190.96-8Q190.85-7.39 189.9-7.39L189.9-7.39 177.98-7.39 177.98-4.65ZM185.44-26.7L185.44-26.7 181.52-26.7Q180.68-25.48 180.22-24.95L180.22-24.95Q181.56-22.97 183.35-21.63L183.35-21.63Q184.79-23.88 185.44-26.7ZM192.41-26.7L192.41-26.7 190.05-26.7Q188.94-22.74 186.09-19.96L186.09-19.96Q189.1-18.43 193.71-17.67L193.71-17.67 193.63-17.29Q191.38-16.38 191.04-13.37L191.04-13.37Q186.47-14.93 183.54-17.98L183.54-17.98Q180.18-15.73 174.51-14.4L174.51-14.4 174.28-14.85Q179.23-16.91 181.97-19.88L181.97-19.88Q180.72-21.67 179.69-24.26L179.69-24.26Q177.86-22.2 175.69-20.83L175.69-20.83 175.2-21.18Q178.51-26.05 179.61-33.06L179.61-33.06 185.06-31.42Q184.72-30.62 183.54-30.62L183.54-30.62Q183.12-29.63 182.13-27.8L182.13-27.8 187-27.8 189.36-30.89Q191.92-28.83 193.48-27.35L193.48-27.35Q193.29-26.7 192.41-26.7Z" transform="translate(-2.549999952316284, 33.47999954223633)"></path></g> <!----> <!----> <!----> <!----> <!----> <!----> <!----></g></g> <g data-gra="path-slogan" fill-rule="" class="tp-slogan iconsvg-slogansvg" fill="#0a0619" transform="translate(5,45.02000045776367)"><rect x="0" height="1" y="3.4050002098083496" width="49.685001373291016"></rect> <rect height="1" y="3.4050002098083496" width="41.685001373291016" x="139.47500228881836"></rect> <g transform="translate(52.685001373291016,0)"><g transform="scale(1)"><path d="M1.72-4.22L5.47-4.22L5.47-7.15L6.45-7.15L6.45 0L5.47 0L5.47-3.32L1.72-3.32L1.72 0L0.74 0L0.74-7.15L1.72-7.15L1.72-4.22ZM12.66 0L11.95-2.07L9.06-2.07L8.32 0L7.34 0L10.04-7.15L11.13-7.15L13.71 0L12.66 0ZM10.51-6.09L9.38-2.93L11.60-2.93L10.55-6.09L10.51-6.09ZM18.01-3.09L15.66-3.09L15.66 0L14.69 0L14.69-7.15L18.01-7.15Q20.39-7.15 20.39-5.23L20.39-5.23Q20.39-4.06 19.38-3.52L19.38-3.52Q20.23-3.28 20.23-2.15L20.23-2.15L20.31-0.86Q20.27-0.31 20.66-0.16L20.66-0.16L20.66 0L19.45 0Q19.34-0.51 19.30-1.80L19.30-1.80Q19.34-3.09 18.01-3.09L18.01-3.09ZM18.09-6.37L15.66-6.37L15.66-3.91L17.93-3.91Q19.38-3.91 19.38-5.16L19.38-5.16Q19.38-6.37 18.09-6.37L18.09-6.37ZM24.45-6.37L22.73-6.37L22.73-4.14L24.45-4.14Q25.98-4.10 25.94-5.31L25.94-5.31Q25.94-6.37 24.45-6.37L24.45-6.37ZM24.84 0L21.76 0L21.76-7.15L24.92-7.15Q26.84-7.07 26.91-5.35L26.91-5.35Q26.91-4.30 25.98-3.87L25.98-3.87Q27.30-3.40 27.30-2.11L27.30-2.11Q27.19-0.08 24.84 0L24.84 0ZM24.61-3.32L22.73-3.32L22.73-0.82L24.80-0.82Q26.29-0.86 26.33-2.11L26.33-2.11Q26.33-3.32 24.61-3.32L24.61-3.32ZM28.55-7.15L29.53-7.15L29.53 0L28.55 0L28.55-7.15ZM32.34-7.15L35.94-1.37L35.94-7.15L36.88-7.15L36.88 0L35.78 0L32.15-5.78L32.11-5.78L32.11 0L31.17 0L31.17-7.15L32.34-7.15ZM40.55-1.60L40.55-2.30L41.45-2.30L41.45-1.80Q41.45-0.63 42.54-0.63L42.54-0.63Q43.67-0.63 43.67-1.88L43.67-1.88L43.67-7.15L44.65-7.15L44.65-1.91Q44.61 0.08 42.58 0.12L42.58 0.12Q40.66 0.08 40.55-1.60L40.55-1.60ZM50.86-2.66L50.86-7.15L51.84-7.15L51.84-2.54Q51.72 0.04 48.91 0.12L48.91 0.12Q46.29 0.04 46.17-2.38L46.17-2.38L46.17-7.15L47.15-7.15L47.15-2.66Q47.19-0.70 48.95-0.66L48.95-0.66Q50.86-0.70 50.86-2.66L50.86-2.66ZM54.49-7.15L58.09-1.37L58.09-7.15L59.02-7.15L59.02 0L57.93 0L54.30-5.78L54.26-5.78L54.26 0L53.32 0L53.32-7.15L54.49-7.15ZM64.69-0.90L63.95-1.48L64.45-2.07L65.35-1.37Q66.17-2.19 66.17-3.55L66.17-3.55Q66.02-6.37 63.67-6.52L63.67-6.52Q61.29-6.41 61.17-3.55L61.17-3.55Q61.29-0.78 63.67-0.66L63.67-0.66Q64.26-0.66 64.69-0.90L64.69-0.90ZM66.13-0.78L67.07-0.04L66.60 0.47L65.51-0.27Q64.80 0.12 63.67 0.12L63.67 0.12Q60.39 0 60.16-3.55L60.16-3.55Q60.35-7.27 63.67-7.34L63.67-7.34Q66.91-7.23 67.15-3.55L67.15-3.55Q67.11-1.84 66.13-0.78L66.13-0.78ZM68.44-7.15L69.41-7.15L69.41 0L68.44 0L68.44-7.15ZM72.23-7.15L75.82-1.37L75.82-7.15L76.76-7.15L76.76 0L75.66 0L72.03-5.78L71.99-5.78L71.99 0L71.05 0L71.05-7.15L72.23-7.15ZM83.59-3.01L81.41-3.01L81.41-3.83L84.53-3.83L84.53 0L83.91 0L83.67-0.90Q82.85 0.08 81.33 0.12L81.33 0.12Q79.88 0.12 79.10-0.63L79.10-0.63Q77.93-1.72 77.97-3.63L77.97-3.63Q78.24-7.19 81.37-7.34L81.37-7.34Q84.02-7.19 84.41-5L84.41-5L83.48-5Q83.09-6.48 81.33-6.52L81.33-6.52Q79.10-6.37 78.98-3.59L78.98-3.59Q78.98-0.63 81.37-0.63L81.37-0.63Q82.23-0.63 82.85-1.09L82.85-1.09Q83.63-1.72 83.59-3.01L83.59-3.01Z" transform="translate(-0.7421875, 7.34375)"></path></g></g></g></g></g><defs v-gra="od"></defs><defs v-gra="id"><filter id="ebd8cd1f-2986-4493-bd74-893cab198844" filterUnits="userSpaceOnUse"><feColorMatrix type="matrix" values="0 0 0 0 0.99609375  0 0 0 0 0.99609375  0 0 0 0 0.99609375  0 0 0 1 0"></feColorMatrix></filter><linearGradient x1="0" y1="1" x2="0" y2="0" id="QqXiwmNjoFmdLyZkQ2ytv"><stop offset="0%" stop-color="#ff51f9"></stop><stop offset="50%" stop-color="#a348ff"></stop><stop offset="100%" stop-color="#3978ff"></stop></linearGradient><filter id="42443b3f1de60f6b6fd3b6a9844b4764" filterUnits="objectBoundingBox"><feColorMatrix type="matrix" values="0 0 0 0 0.99609375  0 0 0 0 0.99609375  0 0 0 0 0.99609375  0 0 0 1 0"></feColorMatrix></filter></defs><mask v-gra="im" id="5ff44c37-0662-4cb2-802d-f86f68e89b3f"><g fill="#FFFFFF" class="iconsvg-imagesvg icon_container" filter="url(#ebd8cd1f-2986-4493-bd74-893cab198844)"><rect fill="#0a0619" fill-opacity="0" stroke-width="2" x="0" y="0" width="55" height="55" class="image-rect"></rect> <svg viewBox="0 0 60 60" x="0" y="0" width="55" height="55" class="image-svg-svg bn" style="overflow: visible;"><g hollow-target="iconBnFill" mask="url(#fc9031b9-30e5-4319-96d3-6b7ba52a7ed1)"><g><svg fill="#000000" xmlns="http://www.w3.org/2000/svg" xmlns:xlink="http://www.w3.org/1999/xlink" xmlns:sketch="http://www.bohemiancoding.com/sketch/ns" viewBox="0 0 60 60" version="1.1" x="0" y="0" style="overflow: visible;" width="60" height="60" filtersec="colorsf4175155971"><g transform="scale(1, 1) skewX(0)"><title>96 - Rounded (Solid)</title><desc>Created with Sketch.</desc><g fill-rule="evenodd"><g fill="#000000"><path d="M49.001,0 L10.999,0 C4.934,0 0,4.934 0,10.999 L0,49.001 C0,55.066 4.934,60 10.999,60 L49.001,60 C55.065,60 60,55.066 60,49.001 L60,10.999 C60,4.934 55.065,0 49.001,0"></path></g></g></g><defs><filter id="uFUPGi24cRid7-fSSm643"><feColorMatrix type="matrix" values="0 0 0 0 0.99609375  0 0 0 0 0.99609375  0 0 0 0 0.99609375  0 0 0 1 0"></feColorMatrix></filter></defs></svg></g> <g><svg xmlns="http://www.w3.org/2000/svg" viewBox="0 0 280.07 200" width="40" height="40" x="10" y="10" class="image-svg-icon"><g><path d="M140.05 0a100 100 0 0 1 93.32 64 70 70 0 0 1-23.32 136h-140A70 70 0 0 1 46.73 64a100 100 0 0 1 93.32-64zm0 20a80.07 80.07 0 0 0-77.64 60.58A50 50 0 0 0 70.05 180h140a50 50 0 0 0 7.64-99.4A80 80 0 0 0 140.05 20z"></path></g></svg></g></g><mask id="fc9031b9-30e5-4319-96d3-6b7ba52a7ed1"><g fill="white"><svg xmlns="http://www.w3.org/2000/svg" xmlns:xlink="http://www.w3.org/1999/xlink" xmlns:sketch="http://www.bohemiancoding.com/sketch/ns" viewBox="0 0 60 60" version="1.1" x="0" y="0" style="overflow: visible;" width="60" height="60" filtersec="colorsf4175155971"><g transform="scale(1, 1) skewX(0)"><title>96 - Rounded (Solid)</title><desc>Created with Sketch.</desc><g fill-rule="evenodd"><g><path d="M49.001,0 L10.999,0 C4.934,0 0,4.934 0,10.999 L0,49.001 C0,55.066 4.934,60 10.999,60 L49.001,60 C55.065,60 60,55.066 60,49.001 L60,10.999 C60,4.934 55.065,0 49.001,0"></path></g></g></g><defs></defs></svg></g> <g fill="black"><svg xmlns="http://www.w3.org/2000/svg" viewBox="0 0 280.07 200" width="40" height="40" x="10" y="10" class="image-svg-icon"><g><path d="M140.05 0a100 100 0 0 1 93.32 64 70 70 0 0 1-23.32 136h-140A70 70 0 0 1 46.73 64a100 100 0 0 1 93.32-64zm0 20a80.07 80.07 0 0 0-77.64 60.58A50 50 0 0 0 70.05 180h140a50 50 0 0 0 7.64-99.4A80 80 0 0 0 140.05 20z"></path></g></svg></g></mask></svg> <defs><filter id="colors1313875592"><feColorMatrix type="matrix" values="0 0 0 0 0.99609375  0 0 0 0 0.99609375  0 0 0 0 0.99609375  0 0 0 1 0" class="icon-fecolormatrix"></feColorMatrix></filter> <filter id="colorsf4175155971"><feColorMatrix type="matrix" values="0 0 0 0 0.99609375  0 0 0 0 0.99609375  0 0 0 0 0.99609375  0 0 0 1 0" class="icon-fecolormatrix"></feColorMatrix></filter> <filter id="colorsb8165742178"><feColorMatrix type="matrix" values="0 0 0 0 0  0 0 0 0 0  0 0 0 0 0  0 0 0 1 0" class="icon-fecolormatrix"></feColorMatrix></filter></defs></g></mask></svg>